<svg xmlns="http://www.w3.org/2000/svg" viewBox="0 0 64 64">
  <defs>
    <linearGradient id="bg" x1="8" y1="6" x2="58" y2="60" gradientUnits="userSpaceOnUse">
      <stop stop-color="#FFE36E"/>
      <stop offset="0.48" stop-color="#7DD3FC"/>
      <stop offset="1" stop-color="#FF8FB7"/>
    </linearGradient>
    <linearGradient id="mark" x1="19" y1="14" x2="46" y2="51" gradientUnits="userSpaceOnUse">
      <stop stop-color="#0F766E"/>
      <stop offset="1" stop-color="#2563EB"/>
    </linearGradient>
  </defs>
  <rect width="64" height="64" rx="18" fill="url(#bg)"/>
  <path d="M18 43.5c0-7.2 5.8-13 13-13h15v7H31c-3.3 0-6 2.7-6 6s2.7 6 6 6h7.5c2.5 0 4.5-2 4.5-4.5V18h7v27c0 6.4-5.1 11.5-11.5 11.5H31c-7.2 0-13-5.8-13-13Z" fill="#fff" opacity="0.92"/>
  <path d="M14 19.5c0-6.1 4.9-11 11-11h20c2.8 0 5 2.2 5 5v4.5H25c-2.2 0-4 1.8-4 4v24h-7V19.5Z" fill="url(#mark)"/>
  <circle cx="43" cy="17" r="4" fill="#fff"/>
</svg>
